<svg width="62" height="21" viewBox="0 0 62 21" fill="none" xmlns="http://www.w3.org/2000/svg">
<path d="M0 0.166626H6.38235V8.57748L16.8676 0.166626H25.0735L14.3603 10.5L25.0735 20.8333H16.8676L6.38235 12.1821V20.8333H0V0.166626Z" fill="url(#paint0_linear_57_14)"/>
<path fill-rule="evenodd" clip-rule="evenodd" d="M38.75 20.8333C46.8069 20.8333 53.3382 16.2069 53.3382 10.5C53.3382 4.79306 46.8069 0.166626 38.75 0.166626C30.6931 0.166626 24.1618 4.79306 24.1618 10.5C24.1618 16.2069 30.6931 20.8333 38.75 20.8333ZM38.9779 15.5465C43.1323 15.5465 46.5 13.287 46.5 10.5C46.5 7.71293 43.1323 5.45345 38.9779 5.45345C34.8236 5.45345 31.4559 7.71293 31.4559 10.5C31.4559 13.287 34.8236 15.5465 38.9779 15.5465Z" fill="url(#paint1_linear_57_14)"/>
<path d="M55.6176 0.166626H62V20.8333H55.6176V0.166626Z" fill="url(#paint2_linear_57_14)"/>
<defs>
<linearGradient id="paint0_linear_57_14" x1="62" y1="0.166628" x2="5.31609" y2="30.7018" gradientUnits="userSpaceOnUse">
<stop stop-color="#99A9FF"/>
<stop offset="1" stop-color="#7AFFE8"/>
</linearGradient>
<linearGradient id="paint1_linear_57_14" x1="62" y1="0.166628" x2="5.31609" y2="30.7018" gradientUnits="userSpaceOnUse">
<stop stop-color="#99A9FF"/>
<stop offset="1" stop-color="#7AFFE8"/>
</linearGradient>
<linearGradient id="paint2_linear_57_14" x1="62" y1="0.166628" x2="5.31609" y2="30.7018" gradientUnits="userSpaceOnUse">
<stop stop-color="#99A9FF"/>
<stop offset="1" stop-color="#7AFFE8"/>
</linearGradient>
</defs>
</svg>
