<svg width="16" height="14" viewBox="0 0 16 14" fill="none" xmlns="http://www.w3.org/2000/svg">
<path d="M1.40632 1.66797H14.5938C14.8103 1.66797 15.0129 1.71454 15.1963 1.79129L8.03132 8.06064L6.42542 6.71021C6.42542 6.71021 6.42529 6.71007 6.42526 6.71002C6.42523 6.70996 6.4251 6.70991 6.4251 6.70991L0.803634 1.7914C0.987009 1.71459 1.18979 1.66797 1.40632 1.66797Z" fill="white"/>
<path d="M0.140815 2.37158L5.43091 7.00017L0.141003 11.6288C0.0532837 11.4684 6.48499e-05 11.2911 6.48499e-05 11.1017V2.89855C6.48499e-05 2.70925 0.0531588 2.53195 0.140815 2.37158Z" fill="white"/>
<path d="M15.8591 2.37134C15.9468 2.53176 16 2.70909 16 2.8985V11.1016C16 11.2909 15.9468 11.4683 15.8592 11.6286L10.5691 7.00006L15.8591 2.37134Z" fill="white"/>
<path d="M6.09354 7.57989L7.69966 8.93048C7.79123 9.0106 7.91116 9.05065 8.03107 9.05065C8.15098 9.05065 8.27095 9.0106 8.36248 8.93048L9.9061 7.57983L15.1963 12.2084C15.0129 12.2853 14.8101 12.3319 14.5936 12.3319H1.4061C1.18963 12.3319 0.986977 12.2853 0.803633 12.2086L6.09354 7.57989Z" fill="white"/>
</svg>
