<svg width="15" height="15" viewBox="0 0 15 15" fill="none" xmlns="http://www.w3.org/2000/svg">
<path d="M7.38655 7.9352C8.27097 7.9352 8.98784 7.21814 8.98784 6.33381C8.98784 5.44939 8.27097 4.73242 7.38655 4.73242C6.50203 4.73242 5.78516 5.44939 5.78516 6.33381C5.78622 7.21775 6.50251 7.93404 7.38655 7.9352ZM7.38655 5.35501C7.9288 5.35501 8.36835 5.79456 8.36835 6.33691C8.36835 6.87916 7.9288 7.31881 7.38655 7.31881C6.8442 7.31881 6.40465 6.87916 6.40465 6.33691C6.40475 5.79466 6.8443 5.35521 7.38655 5.35501Z" fill="#7E839D"/>
<path d="M7.38639 8.52741C6.73118 8.52257 6.1024 8.78556 5.64562 9.25532C5.18099 9.72923 4.927 10.3735 4.927 11.0735C4.92749 11.2444 5.06581 11.3828 5.23675 11.3833H9.53594C9.70689 11.3828 9.84521 11.2444 9.84569 11.0735C9.84569 10.3735 9.5917 9.72923 9.12708 9.25532C8.67039 8.78556 8.04151 8.52257 7.38639 8.52741ZM5.56818 10.7638C5.62113 10.3588 5.80378 9.98187 6.08855 9.68896C6.43131 9.34214 6.89874 9.1469 7.38639 9.1469C7.87396 9.1469 8.34138 9.34214 8.68414 9.68896C8.96833 9.98216 9.15079 10.359 9.20451 10.7638H5.56818Z" fill="#7E839D"/>
<path d="M11.1035 0.470703H3.66958C2.81439 0.47109 2.12114 1.16425 2.12085 2.01944V12.9845C2.12114 13.8397 2.81439 14.5328 3.66958 14.5332H11.1035C11.9587 14.5328 12.6518 13.8397 12.6522 12.9845V2.01944C12.6518 1.16425 11.9587 0.47109 11.1035 0.470703ZM12.0327 12.9845C12.0313 13.497 11.616 13.9123 11.1035 13.9137H3.66958C3.15705 13.9123 2.74179 13.497 2.74034 12.9845V2.01944C2.74179 1.5069 3.15705 1.09165 3.66958 1.0902H11.1035C11.616 1.09165 12.0313 1.5069 12.0327 2.01944V12.9845Z" fill="#7E839D"/>
<path d="M6.0949 2.54918H8.57287C8.74391 2.54918 8.88262 2.41047 8.88262 2.23943C8.88262 2.0684 8.74391 1.92969 8.57287 1.92969H6.0949C5.92377 1.92969 5.78516 2.0684 5.78516 2.23943C5.78516 2.41047 5.92377 2.54918 6.0949 2.54918Z" fill="#7E839D"/>
</svg>
