<svg width="49" height="49" viewBox="0 0 49 49" fill="none" xmlns="http://www.w3.org/2000/svg">
<circle cx="24.5" cy="24.5" r="24.5" fill="url(#paint0_linear_143_60)"/>
<path d="M26.896 28.2H22.864L22.108 12H27.616L26.896 28.2ZM26.932 35.508C26.356 36.084 25.672 36.372 24.88 36.372C24.088 36.372 23.404 36.084 22.828 35.508C22.276 34.932 22 34.26 22 33.492C22 32.7 22.276 32.016 22.828 31.44C23.404 30.864 24.088 30.576 24.88 30.576C25.672 30.576 26.356 30.864 26.932 31.44C27.508 32.016 27.796 32.7 27.796 33.492C27.796 34.26 27.508 34.932 26.932 35.508Z" fill="#2E343B"/>
<defs>
<linearGradient id="paint0_linear_143_60" x1="49" y1="4.06628e-06" x2="-6.99324" y2="10.0544" gradientUnits="userSpaceOnUse">
<stop stop-color="#99A9FF"/>
<stop offset="1" stop-color="#7AFFE8"/>
</linearGradient>
</defs>
</svg>
