<svg width="20" height="16" viewBox="0 0 20 16" fill="none" xmlns="http://www.w3.org/2000/svg">
<path fill-rule="evenodd" clip-rule="evenodd" d="M5.51785 0.159601C8.64876 -0.0671419 11.7936 -0.0522646 14.922 0.20409L16.8074 0.358589C18.2316 0.475293 19.3875 1.51385 19.604 2.87144L19.723 3.61712C20.1266 6.14754 20.0889 8.72489 19.6114 11.2434C19.3757 12.4861 18.2491 13.3891 16.9346 13.3891H6.51138C6.27157 13.3891 6.03551 13.4462 5.82427 13.5553L1.28315 15.9003C1.01325 16.0397 0.686989 16.0325 0.424003 15.8814C0.161016 15.7304 0 15.4576 0 15.1632V5.66001C0 2.78294 2.30773 0.392081 5.29348 0.175851L5.51785 0.159601ZM5.5156 5.67932C4.71397 5.67932 4.06413 6.30374 4.06413 7.074C4.06413 7.84427 4.71397 8.46869 5.5156 8.46869C6.31722 8.46869 6.96707 7.84427 6.96707 7.074C6.96707 6.30374 6.31722 5.67932 5.5156 5.67932ZM10.1603 5.67932C9.35869 5.67932 8.70884 6.30374 8.70884 7.074C8.70884 7.84427 9.35869 8.46869 10.1603 8.46869C10.9619 8.46869 11.6118 7.84427 11.6118 7.074C11.6118 6.30374 10.9619 5.67932 10.1603 5.67932ZM13.3536 7.074C13.3536 6.30374 14.0034 5.67932 14.805 5.67932C15.6067 5.67932 16.2565 6.30374 16.2565 7.074C16.2565 7.84427 15.6067 8.46869 14.805 8.46869C14.0034 8.46869 13.3536 7.84427 13.3536 7.074Z" fill="#7A8999"/>
</svg>
