<svg width="17" height="20" viewBox="0 0 17 20" fill="none" xmlns="http://www.w3.org/2000/svg">
<path fill-rule="evenodd" clip-rule="evenodd" d="M8.53 0.00197308C10.79 0.0119731 12.95 0.911973 14.53 2.49197C16.12 4.08197 17.01 6.23197 17 8.46197V8.51197C16.94 11.542 15.24 14.332 13.12 16.512C11.92 17.742 10.59 18.832 9.14 19.752C8.75 20.082 8.18 20.082 7.79 19.752C5.64 18.352 3.74 16.592 2.2 14.542C0.85 12.762 0.08 10.622 0 8.39197C0.02 3.74197 3.84 -0.00802692 8.53 0.00197308ZM8.53 11.262C9.24 11.262 9.92 10.992 10.42 10.502C10.94 9.99197 11.231 9.31297 11.231 8.60197C11.231 7.12197 10.02 5.93197 8.53 5.93197C7.04 5.93197 5.84 7.12197 5.84 8.60197C5.84 10.063 7.02 11.242 8.5 11.262H8.53Z" fill="white"/>
</svg>
