<svg width="17" height="19" viewBox="0 0 17 19" fill="none" xmlns="http://www.w3.org/2000/svg">
<path fill-rule="evenodd" clip-rule="evenodd" d="M8.52695 1.79618e-05C10.5614 0.00901979 12.5058 0.819185 13.928 2.24147C15.3593 3.67276 16.1605 5.60816 16.1515 7.61557V7.66057C16.0975 10.3881 14.5672 12.8996 12.6588 14.862C11.5786 15.9693 10.3813 16.9505 9.07606 17.7786C8.72499 18.0757 8.21189 18.0757 7.86081 17.7786C5.92542 16.5184 4.21507 14.9341 2.82879 13.0887C1.61354 11.4864 0.920403 9.55996 0.848389 7.55255C0.866392 3.3667 4.30509 -0.00898387 8.52695 1.79618e-05ZM8.52698 10.136C9.16611 10.136 9.77823 9.89293 10.2283 9.45184C10.6964 8.99275 10.9584 8.38152 10.9584 7.74149C10.9584 6.40922 9.86825 5.338 8.52698 5.338C7.18571 5.338 6.10549 6.40922 6.10549 7.74149C6.10549 9.05666 7.1677 10.118 8.49997 10.136H8.52698Z" fill="#7E839D"/>
</svg>
