<svg width="18" height="18" viewBox="0 0 18 18" fill="none" xmlns="http://www.w3.org/2000/svg">
<path d="M17 7.38462C17 9.08385 13.4167 10.4615 9 10.4615C4.58333 10.4615 1 9.08385 1 7.38462M17 10.6923C17 12.3915 13.4167 13.7692 9 13.7692C4.58333 13.7692 1 12.3915 1 10.6923M1 4.04769V13.9523C1 15.6354 4.58333 17 9 17C13.4167 17 17 15.6354 17 13.9523V4.04769M17 4.07692C17 5.77626 13.4183 7.15385 9 7.15385C4.58172 7.15385 1 5.77626 1 4.07692C1 2.37759 4.58172 1 9 1C13.4183 1 17 2.37759 17 4.07692Z" stroke="white" stroke-miterlimit="10" stroke-linecap="round"/>
</svg>
