<svg width="25" height="14" viewBox="0 0 25 14" fill="none" xmlns="http://www.w3.org/2000/svg">
<path d="M0.761909 6.30009H22.6758L16.8556 1.20696C16.5509 0.940259 16.539 0.497165 16.8293 0.217168C17.1192 -0.0624786 17.6015 -0.0736785 17.9067 0.193018L24.5535 6.00995C24.8411 6.27454 25 6.62594 25 7.00009C25 7.37388 24.8411 7.72563 24.5402 8.00177L17.9063 13.8068C17.7589 13.936 17.5699 14 17.381 14C17.1798 14 16.9787 13.9272 16.829 13.7827C16.5387 13.5027 16.5505 13.0599 16.8552 12.7932L22.6998 7.70008H0.761909C0.341337 7.70008 0 7.38648 0 7.00009C0 6.61369 0.341337 6.30009 0.761909 6.30009Z" fill="#22282D"/>
</svg>
