<svg width="17" height="17" viewBox="0 0 17 17" fill="none" xmlns="http://www.w3.org/2000/svg">
<path d="M16.2446 7.08261C16.2446 8.70146 12.8304 10.014 8.62228 10.014C4.41415 10.014 1 8.70146 1 7.08261M16.2446 10.2338C16.2446 11.8527 12.8304 13.1652 8.62228 13.1652C4.41415 13.1652 1 11.8527 1 10.2338M1 3.90353V13.3396C1 14.9431 4.41415 16.2432 8.62228 16.2432C12.8304 16.2432 16.2446 14.9431 16.2446 13.3396V3.90353M16.2446 3.93138C16.2446 5.55033 12.832 6.86276 8.62228 6.86276C4.41261 6.86276 1 5.55033 1 3.93138C1 2.31242 4.41261 1 8.62228 1C12.832 1 16.2446 2.31242 16.2446 3.93138Z" stroke="#1D2429" stroke-miterlimit="10" stroke-linecap="round"/>
</svg>
